# xmcd CD database file
#
# Track frame offsets:
#	150
#	23267
#	45095
#	72727
#	84667
#	99352
#	116275
#	139772
#	164817
#	182945
#	200055
#	225012
#	253855
#
# Disc length: 3616 seconds
#
# Revision: 0
# Processed by: cddbd v1.5.1PL0 Copyright (c) Steve Scherf et al.
# Submitted via: CDex 1.51
#
DISCID=a70e1e0d
DTITLE=urb - afterdark
DYEAR=2004
DGENRE=Jazz
TTITLE0=Cover Girl
TTITLE1='Til Sunrise
TTITLE2=Be Aware
TTITLE3=Whitezone
TTITLE4=Future Is Now
TTITLE5=Aperitif
TTITLE6=Red Eye
TTITLE7=The Best Is Yet To Come
TTITLE8=Li'l Miles
TTITLE9=I Smell That
TTITLE10=Half
TTITLE11=Purple Rain
TTITLE12=Red Eye (reprise)
EXTD=YEAR: 2004
EXTT0=
EXTT1=
EXTT2=
EXTT3=
EXTT4=
EXTT5=
EXTT6=
EXTT7=
EXTT8=
EXTT9=
EXTT10=
EXTT11=
EXTT12=
PLAYORDER=
